<svg width="370" height="104" viewBox="0 0 370 104" fill="none" xmlns="http://www.w3.org/2000/svg">
<path d="M292.676 90.312H279.94L276.868 101H269.059L282.692 56.2H289.86L303.556 101H295.748L292.676 90.312ZM290.628 83.144L286.276 67.976L281.988 83.144H290.628ZM307.342 56.2H320.398C325.091 56.2 328.76 57.3307 331.406 59.592C334.051 61.8107 335.374 65.288 335.374 70.024C335.374 72.7973 334.819 75.2293 333.71 77.32C332.6 79.4107 331.043 81.032 329.038 82.184L337.614 101H328.846L321.55 84.36H320.846H315.15V101H307.342V56.2ZM319.694 77.576C322.168 77.576 324.046 77 325.326 75.848C326.648 74.696 327.31 72.84 327.31 70.28C327.31 67.72 326.648 65.864 325.326 64.712C324.046 63.56 322.168 62.984 319.694 62.984H315.15V77.576H319.694ZM348.703 63.368H337.951V56.2H367.263V63.368H356.511V101H348.703V63.368Z" fill="#404040"/>
<path d="M4.99625 3.2H18.0522C22.7029 3.2 26.3723 4.45866 29.0603 6.976C31.7483 9.45067 33.0923 13.1413 33.0923 18.048C33.0923 22.9547 31.7483 26.6667 29.0603 29.184C26.3723 31.6587 22.7029 32.896 18.0522 32.896H12.8043V48H4.99625V3.2ZM17.3483 26.112C19.8656 26.112 21.7643 25.4933 23.0443 24.256C24.3669 23.0187 25.0283 20.9493 25.0283 18.048C25.0283 15.3173 24.3456 13.2907 22.9803 11.968C21.6576 10.6453 19.7803 9.984 17.3483 9.984H12.8043V26.112H17.3483ZM55.2718 48.896C51.6024 48.896 48.3171 47.936 45.4158 46.016C42.5571 44.0533 40.3171 41.3227 38.6958 37.824C37.0744 34.2827 36.2638 30.208 36.2638 25.6C36.2638 20.992 37.0744 16.9387 38.6958 13.44C40.3171 9.89867 42.5571 7.168 45.4158 5.248C48.3171 3.28533 51.6024 2.304 55.2718 2.304C58.9411 2.304 62.2051 3.264 65.0638 5.184C67.9651 7.104 70.2264 9.83467 71.8478 13.376C73.4691 16.9173 74.2798 20.992 74.2798 25.6C74.2798 30.208 73.4691 34.2827 71.8478 37.824C70.2264 41.3653 67.9651 44.096 65.0638 46.016C62.2051 47.936 58.9411 48.896 55.2718 48.896ZM55.2718 41.024C58.7278 41.024 61.3731 39.616 63.2078 36.8C65.0424 33.984 65.9598 30.2507 65.9598 25.6C65.9598 20.9493 65.0424 17.216 63.2078 14.4C61.3731 11.584 58.7278 10.176 55.2718 10.176C51.8158 10.176 49.1704 11.584 47.3358 14.4C45.5011 17.216 44.5838 20.9493 44.5838 25.6C44.5838 30.2507 45.5011 33.984 47.3358 36.8C49.1704 39.616 51.8158 41.024 55.2718 41.024ZM80.4427 3.2H88.2508V40.832H103.355V48H80.4427V3.2ZM127.207 37.312H114.471L111.399 48H103.591L117.223 3.2H124.391L138.087 48H130.279L127.207 37.312ZM125.159 30.144L120.807 14.976L116.519 30.144H125.159ZM141.873 3.2H154.929C159.622 3.2 163.291 4.33066 165.937 6.592C168.582 8.81067 169.905 12.288 169.905 17.024C169.905 19.7973 169.35 22.2293 168.241 24.32C167.131 26.4107 165.574 28.032 163.569 29.184L172.145 48H163.377L156.081 31.36H155.377H149.681V48H141.873V3.2ZM154.225 24.576C156.699 24.576 158.577 24 159.857 22.848C161.179 21.696 161.841 19.84 161.841 17.28C161.841 14.72 161.179 12.864 159.857 11.712C158.577 10.56 156.699 9.984 154.225 9.984H149.681V24.576H154.225ZM208.312 48L205.048 19.2L195.512 38.976L185.976 19.2L182.712 48H174.648L180.28 3.2H186.616L195.512 22.848L204.408 3.2H210.744L216.376 48H208.312ZM239.647 48.896C235.977 48.896 232.692 47.936 229.791 46.016C226.932 44.0533 224.692 41.3227 223.071 37.824C221.449 34.2827 220.639 30.208 220.639 25.6C220.639 20.992 221.449 16.9387 223.071 13.44C224.692 9.89867 226.932 7.168 229.791 5.248C232.692 3.28533 235.977 2.304 239.647 2.304C243.316 2.304 246.58 3.264 249.439 5.184C252.34 7.104 254.601 9.83467 256.223 13.376C257.844 16.9173 258.655 20.992 258.655 25.6C258.655 30.208 257.844 34.2827 256.223 37.824C254.601 41.3653 252.34 44.096 249.439 46.016C246.58 47.936 243.316 48.896 239.647 48.896ZM239.647 41.024C243.103 41.024 245.748 39.616 247.583 36.8C249.417 33.984 250.335 30.2507 250.335 25.6C250.335 20.9493 249.417 17.216 247.583 14.4C245.748 11.584 243.103 10.176 239.647 10.176C236.191 10.176 233.545 11.584 231.711 14.4C229.876 17.216 228.959 20.9493 228.959 25.6C228.959 30.2507 229.876 33.984 231.711 36.8C233.545 39.616 236.191 41.024 239.647 41.024ZM264.498 3.2H277.554C282.247 3.2 285.916 4.33066 288.562 6.592C291.207 8.81067 292.53 12.288 292.53 17.024C292.53 19.7973 291.975 22.2293 290.866 24.32C289.756 26.4107 288.199 28.032 286.194 29.184L294.77 48H286.002L278.706 31.36H278.002H272.306V48H264.498V3.2ZM276.85 24.576C279.324 24.576 281.202 24 282.482 22.848C283.804 21.696 284.466 19.84 284.466 17.28C284.466 14.72 283.804 12.864 282.482 11.712C281.202 10.56 279.324 9.984 276.85 9.984H272.306V24.576H276.85ZM298.809 3.2H311.865C316.515 3.2 320.185 4.45866 322.873 6.976C325.561 9.45067 326.905 13.1413 326.905 18.048C326.905 22.9547 325.561 26.6667 322.873 29.184C320.185 31.6587 316.515 32.896 311.865 32.896H306.617V48H298.809V3.2ZM311.161 26.112C313.678 26.112 315.577 25.4933 316.857 24.256C318.179 23.0187 318.841 20.9493 318.841 18.048C318.841 15.3173 318.158 13.2907 316.793 11.968C315.47 10.6453 313.593 9.984 311.161 9.984H306.617V26.112H311.161ZM332.38 3.2H340.188V20.928H356.828V3.2H364.636V48H356.828V28.608H340.188V48H332.38V3.2Z" fill="#404040"/>
<path d="M23.071 101.896C19.3163 101.896 15.9457 100.957 12.959 99.08C9.97233 97.16 7.60433 94.4507 5.855 90.952C4.14833 87.4107 3.295 83.2933 3.295 78.6C3.295 73.9067 4.14833 69.8107 5.855 66.312C7.56167 62.7707 9.92967 60.0613 12.959 58.184C15.9883 56.264 19.4017 55.304 23.199 55.304C26.8683 55.304 30.2177 56.008 33.247 57.416L32.351 65.224C30.7723 64.5413 29.3857 64.0293 28.191 63.688C26.9963 63.3467 25.6737 63.176 24.223 63.176C20.3403 63.176 17.311 64.5413 15.135 67.272C12.959 70.0027 11.871 73.7787 11.871 78.6C11.871 83.4213 12.959 87.1973 15.135 89.928C17.311 92.6587 20.319 94.024 24.159 94.024C25.6523 94.024 26.9963 93.8533 28.191 93.512C29.3857 93.1707 30.7723 92.6587 32.351 91.976L33.247 99.784C30.431 101.192 27.039 101.896 23.071 101.896ZM55.053 101.896C51.3837 101.896 48.0983 100.936 45.197 99.016C42.3383 97.0533 40.0983 94.3227 38.477 90.824C36.8557 87.2827 36.045 83.208 36.045 78.6C36.045 73.992 36.8557 69.9387 38.477 66.44C40.0983 62.8987 42.3383 60.168 45.197 58.248C48.0983 56.2853 51.3837 55.304 55.053 55.304C58.7223 55.304 61.9863 56.264 64.845 58.184C67.7463 60.104 70.0077 62.8347 71.629 66.376C73.2503 69.9173 74.061 73.992 74.061 78.6C74.061 83.208 73.2503 87.2827 71.629 90.824C70.0077 94.3653 67.7463 97.096 64.845 99.016C61.9863 100.936 58.7223 101.896 55.053 101.896ZM55.053 94.024C58.509 94.024 61.1543 92.616 62.989 89.8C64.8237 86.984 65.741 83.2507 65.741 78.6C65.741 73.9493 64.8237 70.216 62.989 67.4C61.1543 64.584 58.509 63.176 55.053 63.176C51.597 63.176 48.9517 64.584 47.117 67.4C45.2823 70.216 44.365 73.9493 44.365 78.6C44.365 83.2507 45.2823 86.984 47.117 89.8C48.9517 92.616 51.597 94.024 55.053 94.024ZM80.224 56.2H104.032V63.368H88.032V73.928H100.384V81.096H88.032V101H80.224V56.2ZM109.224 56.2H133.032V63.368H117.032V73.928H129.384V81.096H117.032V101H109.224V56.2ZM138.224 56.2H163.376V63.368H146.032V73.928H159.408V81.096H146.032V93.832H163.952V101H138.224V56.2ZM170.036 56.2H195.189V63.368H177.845V73.928H191.221V81.096H177.845V93.832H195.765V101H170.036V56.2Z" fill="#404040"/>
<path fill-rule="evenodd" clip-rule="evenodd" d="M236 104C250.359 104 262 92.3594 262 78C262 63.6406 250.359 52 236 52C221.641 52 210 63.6406 210 78C210 92.3594 221.641 104 236 104ZM243.029 92.0563L247.622 96.85L252.9 92.1261L247.073 86.3084C247.774 84.8346 248.322 83.322 248.719 81.7706C249.13 80.2037 249.389 78.6679 249.495 77.163H242.663C242.572 77.7371 242.45 78.3498 242.298 79.0014C242.161 79.6375 241.985 80.3046 241.772 81.0027L238.025 77.2329C238.284 77.0622 238.535 76.8916 238.779 76.7209C239.023 76.5347 239.274 76.3486 239.533 76.1624C240.112 75.7435 240.66 75.2471 241.178 74.6731C241.696 74.0836 242.145 73.4397 242.526 72.7416C242.922 72.0435 243.227 71.2911 243.44 70.4844C243.669 69.6777 243.783 68.8399 243.783 67.9711C243.783 66.7456 243.547 65.5665 243.075 64.434C242.618 63.286 241.963 62.2776 241.11 61.4088C240.257 60.5245 239.228 59.8187 238.025 59.2912C236.821 58.7637 235.481 58.5 234.003 58.5C232.602 58.5 231.299 58.756 230.096 59.2679C228.908 59.7799 227.864 60.478 226.966 61.3623C226.082 62.2311 225.389 63.2395 224.886 64.3875C224.384 65.5355 224.132 66.7456 224.132 68.0177C224.132 69.507 224.384 70.8489 224.886 72.0435C225.404 73.2381 226.135 74.3473 227.08 75.3712L227.514 75.8366C227.484 75.8676 227.461 75.8832 227.445 75.8832C225.846 77.0312 224.597 78.3654 223.698 79.8857C222.799 81.4061 222.35 83.1514 222.35 85.1216C222.35 86.6575 222.639 88.0925 223.218 89.4267C223.797 90.7609 224.589 91.9166 225.595 92.894C226.6 93.8714 227.781 94.6393 229.136 95.1978C230.492 95.7563 231.947 96.0355 233.501 96.0355C235.45 96.0355 237.21 95.6787 238.779 94.9651C240.363 94.2359 241.78 93.2663 243.029 92.0563ZM229.868 86.4713C229.67 85.9904 229.57 85.4939 229.57 84.982C229.57 84.5011 229.631 84.0667 229.753 83.6788C229.89 83.2755 230.073 82.9109 230.302 82.5851C230.545 82.2593 230.835 81.9568 231.17 81.6776C231.52 81.3983 231.901 81.1268 232.312 80.8631L238.299 87.0996C237.69 87.6581 237.004 88.108 236.243 88.4493C235.496 88.7751 234.643 88.938 233.683 88.938C233.059 88.938 232.495 88.8294 231.993 88.6122C231.49 88.395 231.056 88.1002 230.69 87.7279C230.34 87.3556 230.066 86.9367 229.868 86.4713ZM236.722 69.7164C236.524 70.1974 236.182 70.6162 235.694 70.9731C235.374 71.2213 235.009 71.4695 234.597 71.7177C234.186 71.9659 233.744 72.2219 233.272 72.4857L231.993 71.2058C231.596 70.8334 231.284 70.3603 231.056 69.7863C230.842 69.1967 230.736 68.5917 230.736 67.9711C230.736 67.5368 230.812 67.1334 230.964 66.7611C231.132 66.3732 231.36 66.0397 231.65 65.7604C231.939 65.4812 232.282 65.264 232.678 65.1089C233.074 64.9537 233.516 64.8762 234.003 64.8762C234.415 64.8762 234.803 64.9615 235.169 65.1321C235.534 65.2873 235.854 65.5122 236.128 65.807C236.418 66.0862 236.639 66.412 236.791 66.7843C236.959 67.1567 237.042 67.5523 237.042 67.9711C237.042 68.6382 236.936 69.22 236.722 69.7164Z" fill="#FF5353"/>
</svg>
