<svg width="80" height="80" viewBox="0 0 80 80" fill="none" xmlns="http://www.w3.org/2000/svg">
<path fill-rule="evenodd" clip-rule="evenodd" d="M40 80C62.0914 80 80 62.0914 80 40C80 17.9086 62.0914 0 40 0C17.9086 0 0 17.9086 0 40C0 62.0914 17.9086 80 40 80ZM50.8138 61.625L57.8796 69L66 61.7324L57.0359 52.7822C58.1139 50.5148 58.9576 48.1877 59.5669 45.801C60.1997 43.3904 60.5981 41.0275 60.7622 38.7124H50.2513C50.1107 39.5955 49.9232 40.5382 49.6889 41.5407C49.4779 42.5192 49.2084 43.5455 48.8803 44.6195L43.1152 38.8198C43.5136 38.5572 43.9003 38.2947 44.2752 38.0322C44.6502 37.7458 45.0369 37.4593 45.4353 37.1729C46.3259 36.5285 47.1695 35.7648 47.9663 34.8817C48.7632 33.9747 49.4545 32.9842 50.0404 31.9102C50.6497 30.8362 51.1184 29.6786 51.4465 28.4375C51.7981 27.1964 51.9738 25.9076 51.9738 24.571C51.9738 22.6855 51.6106 20.8716 50.8841 19.1292C50.181 17.3631 49.1733 15.8117 47.8609 14.4751C46.5485 13.1147 44.9666 12.0287 43.1152 11.2172C41.2638 10.4057 39.2014 10 36.9282 10C34.7721 10 32.7684 10.3938 30.917 11.1814C29.089 11.9691 27.4837 13.0431 26.101 14.4035C24.7417 15.7401 23.6754 17.2915 22.902 19.0576C22.1286 20.8238 21.742 22.6855 21.742 24.6426C21.742 26.9339 22.1286 28.9984 22.902 30.8362C23.6988 32.674 24.8237 34.3805 26.2767 35.9557L26.9447 36.6717C26.8978 36.7195 26.8626 36.7433 26.8392 36.7433C24.3785 38.5095 22.4567 40.5621 21.074 42.9011C19.6913 45.2401 19 47.9252 19 50.9563C19 53.3192 19.4453 55.5269 20.3358 57.5795C21.2264 59.6321 22.445 61.4102 23.9918 62.9138C25.5385 64.4175 27.3548 65.5989 29.4405 66.4581C31.5263 67.3174 33.7644 67.747 36.1548 67.747C39.1546 67.747 41.8614 67.198 44.2752 66.1001C46.7125 64.9784 48.892 63.4867 50.8138 61.625ZM30.5654 53.0328C30.2608 52.2929 30.1085 51.5291 30.1085 50.7415C30.1085 50.0016 30.2022 49.3333 30.3897 48.7367C30.6006 48.1161 30.8818 47.5552 31.2334 47.054C31.6083 46.5528 32.0536 46.0874 32.5692 45.6578C33.1082 45.2282 33.6941 44.8105 34.3269 44.4047L43.537 53.9994C42.5996 54.8586 41.545 55.5508 40.3732 56.0759C39.2249 56.5771 37.9125 56.8277 36.4361 56.8277C35.4752 56.8277 34.6081 56.6606 33.8347 56.3265C33.0613 55.9923 32.3934 55.5388 31.831 54.966C31.2919 54.3932 30.8701 53.7488 30.5654 53.0328ZM41.1114 27.2561C40.8068 27.996 40.2795 28.6404 39.5295 29.1893C39.0374 29.5712 38.4749 29.9531 37.8422 30.335C37.2094 30.7168 36.5298 31.1106 35.8033 31.5164L33.8347 29.5473C33.2254 28.9745 32.745 28.2466 32.3934 27.3635C32.0653 26.4565 31.9013 25.5257 31.9013 24.571C31.9013 23.9027 32.0184 23.2822 32.2528 22.7093C32.5106 22.1127 32.8621 21.5995 33.3074 21.1699C33.7527 20.7403 34.28 20.4061 34.8893 20.1675C35.4986 19.9288 36.1783 19.8095 36.9282 19.8095C37.561 19.8095 38.1586 19.9407 38.721 20.2033C39.2835 20.4419 39.7756 20.788 40.1975 21.2415C40.6427 21.6711 40.9825 22.1723 41.2169 22.7451C41.4747 23.318 41.6036 23.9266 41.6036 24.571C41.6036 25.5973 41.4395 26.4923 41.1114 27.2561Z" fill="#FF5353"/>
</svg>
